<svg id="Layer_1" data-name="Layer 1" xmlns="http://www.w3.org/2000/svg" viewBox="0 0 122.88 122.88"><defs><style>.cls-1{fill-rule:evenodd;}</style></defs><title>full-screen-round</title><path class="cls-1" d="M61.44,0A61.44,61.44,0,1,1,0,61.44,61.44,61.44,0,0,1,61.44,0ZM34.23,50.26a3.29,3.29,0,1,1-6.58,0V35.32A3.29,3.29,0,0,1,30.94,32H46.16a3.29,3.29,0,1,1,0,6.58H38.89L52,51.65a3.28,3.28,0,1,1-4.63,4.65L34.23,43.24v7ZM47.58,86a3.3,3.3,0,0,1,0,6.59H32.64a3.29,3.29,0,0,1-3.29-3.29V74a3.29,3.29,0,1,1,6.58,0V81.3L49,68.23a3.28,3.28,0,1,1,4.65,4.63L40.56,86ZM88.65,72.62a3.29,3.29,0,0,1,6.58,0V87.56a3.29,3.29,0,0,1-3.29,3.29H76.72a3.29,3.29,0,1,1,0-6.58H84l-13.08-13a3.28,3.28,0,0,1,4.63-4.65L88.65,79.64v-7ZM75.3,36.92a3.3,3.3,0,0,1,0-6.59H90.24a3.29,3.29,0,0,1,3.29,3.29V48.84a3.29,3.29,0,1,1-6.58,0V41.58l-13,13.07A3.28,3.28,0,1,1,69.26,50l13.06-13.1Z"/></svg>